<svg t="1629360746708" class="icon" viewBox="0 0 1024 1024" version="1.1" xmlns="http://www.w3.org/2000/svg" p-id="4633"
    width="100" height="100">
    <path
        d="M554.666667 0v213.333333a42.666667 42.666667 0 0 0 37.674666 42.368L597.333333 256h298.666667v682.666667a85.333333 85.333333 0 0 1-85.333333 85.333333H213.333333a85.333333 85.333333 0 0 1-85.333333-85.333333V85.333333a85.333333 85.333333 0 0 1 85.333333-85.333333h341.333334zM263.338667 627.413333H227.84l55.04 106.112V810.666667h30.208v-76.885334l55.253333-106.368h-34.858666L298.666667 699.946667l-35.370667-72.533334z m176.128 0h-32.128L348.842667 810.666667h32.256l12.373333-41.642667h59.989333l13.141334 41.642667h32.981333L439.466667 627.413333z m121.130666 0H515.2V810.666667h28.245333v-144.213334l29.653334 144.213334h29.226666l29.866667-144.213334V810.666667h28.16v-183.253334H614.826667l-27.008 125.013334-27.221334-125.013334z m160.981334 1.493334h-30.250667V810.666667h105.770667v-30.890667h-75.52V628.906667z m-298.496 41.258666l20.650666 68.010667h-41.002666l20.352-68.010667z"
        fill="#36B3B3" p-id="4634"></path>
    <path d="M554.666667 0l341.333333 256h-298.666667a42.666667 42.666667 0 0 1-42.666666-42.666667V0z" fill="#D4F5F5"
        p-id="4635"></path>
</svg>